name C:\Users\u0101727\Documents\MyRepositories\paper-ad\predictivesimulations_2d/Results/PredSim_2D/IK_c14.mot
datacolumns 11
datarows 30
range 0.00000000 0.27821771
endheader
time	pelvis_tilt	pelvis_tx	pelvis_ty	hip_flexion_l	hip_flexion_r	knee_angle_l	knee_angle_r	ankle_angle_l	ankle_angle_r	lumbar_extension	
          0.00000000	        -15.14456648	          0.00000000	          0.88362618	          0.96772995	         38.07965448	        -16.23211893	        -10.56569636	          5.77639771	         13.83914255	          9.65075832	
          0.00959371	        -15.10652051	          0.01477816	          0.88284000	          0.87403221	         37.59494867	        -17.72588488	         -9.96024880	          4.57599430	         13.39086131	          9.74765592	
          0.01918743	        -15.05742782	          0.02981976	          0.88200292	          0.85907940	         37.01506370	        -19.38714621	         -9.64083232	          3.27174486	         12.89046237	          9.85759427	
          0.02878114	        -14.99984686	          0.04510775	          0.88113834	          0.93010830	         36.27193189	        -21.21277801	         -9.72801099	          1.84363933	         12.33587480	          9.98454802	
          0.03837486	        -14.94199003	          0.06045625	          0.88037320	          1.09175487	         35.40870476	        -23.18419666	        -10.04209546	          0.37703328	         11.76643812	         10.11908996	
          0.04796857	        -14.89483096	          0.07552454	          0.87993701	          1.37087197	         34.55057128	        -25.20896755	        -10.32213389	         -0.90652234	         11.21610219	         10.23797443	
          0.05756229	        -14.86693200	          0.09006549	          0.88009148	          1.79572612	         33.73477996	        -27.14687924	        -10.58026144	         -1.90900700	         10.68475158	         10.32728533	
          0.06715600	        -14.86063526	          0.10401613	          0.88099237	          2.36222574	         32.96378707	        -28.93530218	        -10.81135203	         -2.65979077	         10.18704857	         10.38588211	
          0.07674971	        -14.87125108	          0.11745973	          0.88259885	          3.05358804	         32.21906622	        -30.59495241	        -11.00341824	         -3.16830879	          9.73928402	         10.41990864	
          0.08634343	        -14.89218561	          0.13052052	          0.88470113	          3.84926685	         31.47949888	        -32.15494320	        -11.14753942	         -3.44730692	          9.35295109	         10.43638960	
          0.09593714	        -14.91807359	          0.14330599	          0.88706659	          4.73369966	         30.72827702	        -33.63285880	        -11.23689918	         -3.51235133	          9.03432259	         10.44063827	
          0.10553086	        -14.94547719	          0.15589039	          0.88951253	          5.69486005	         29.95595825	        -35.03715682	        -11.26958546	         -3.37846467	          8.78501182	         10.43585053	
          0.11512457	        -14.97250301	          0.16832069	          0.89191535	          6.72374288	         29.15801953	        -36.36915467	        -11.24603945	         -3.06194104	          8.60399617	         10.42378407	
          0.12471829	        -14.99818904	          0.18062695	          0.89419581	          7.81294396	         28.33291187	        -37.62575482	        -11.16826351	         -2.57951666	          8.48863711	         10.40544832	
          0.13431200	        -15.02204529	          0.19282948	          0.89630353	          8.95628478	         27.48100769	        -38.80207713	        -11.03973804	         -1.94805775	          8.43519891	         10.38145808	
          0.14390571	        -15.04380446	          0.20494336	          0.89820608	         10.14821646	         26.60395703	        -39.89203268	        -10.86530824	         -1.18451236	          8.43914229	         10.35226455	
          0.15349943	        -15.06329602	          0.21698100	          0.89988249	         11.38337978	         25.70435345	        -40.88885240	        -10.65100845	         -0.30604863	          8.49532521	         10.31827595	
          0.16309314	        -15.08039614	          0.22895330	          0.90132012	         12.65636000	         24.78550540	        -41.78534913	        -10.40385902	          0.66994265	          8.59817004	         10.27990765	
          0.17268686	        -15.09501691	          0.24086976	          0.90251410	         13.96178212	         23.85138307	        -42.57393463	        -10.13186736	          1.72589273	          8.74186114	         10.23755215	
          0.18228057	        -15.10714281	          0.25273798	          0.90346769	         15.29464236	         22.90642033	        -43.24645188	         -9.84284491	          2.84413284	          8.92053083	         10.19152790	
          0.19187428	        -15.11689671	          0.26456528	          0.90419148	         16.64896698	         21.95452426	        -43.79539229	         -9.54385622	          4.00685451	          9.12768695	         10.14230959	
          0.20146800	        -15.12444209	          0.27635793	          0.90470241	         18.01890445	         20.99985567	        -44.21309203	         -9.24247064	          5.19621498	          9.35565278	         10.09033053	
          0.21106171	        -15.12992041	          0.28812143	          0.90502125	         19.39900374	         20.04698171	        -44.49168345	         -8.94650234	          6.39440142	          9.59638412	         10.03592926	
          0.22065543	        -15.13347690	          0.29986181	          0.90516940	         20.78273755	         19.10070389	        -44.62426052	         -8.66434953	          7.58361765	          9.84192490	          9.97948877	
          0.23024914	        -15.13533017	          0.31158612	          0.90516711	         22.16320964	         18.16428033	        -44.60517712	         -8.40165482	          8.74619241	         10.08493575	          9.92153778	
          0.23984286	        -15.13579674	          0.32330271	          0.90503248	         23.53350086	         17.23851610	        -44.43040555	         -8.15973069	          9.86475479	         10.31876761	          9.86282256	
          0.24943657	        -15.13515939	          0.33502032	          0.90478105	         24.88578198	         16.32481485	        -44.09785719	         -7.94133411	         10.92256960	         10.53662563	          9.80407241	
          0.25903028	        -15.13366220	          0.34674717	          0.90442591	         26.21206651	         15.42534226	        -43.60661845	         -7.75008544	         11.90419102	         10.73241207	          9.74590819	
          0.26862400	        -15.13154665	          0.35849239	          0.90397775	         27.50348666	         14.54166232	        -42.95980986	         -7.58904454	         12.79621497	         10.90147355	          9.68907245	
          0.27821771	        -15.12907032	          0.37026439	          0.90344570	         28.75208405	         13.67470894	        -42.16191033	         -7.46022082	         13.58841206	         11.04084302	          9.63425132	
